<?xml version="1.0" ?><svg width="70px" height="70px" viewBox="0 0 2050 2050" xmlns="http://www.w3.org/2000/svg"><defs><style>.cls-1{fill:#fff;}.cls-2{fill:#f6ae2d;}.cls-3{fill:#ff9f1e;}.cls-4{fill:#ffe059;}.cls-5{fill:#00305f;}</style></defs><title/><g data-name="Layer 1" id="Layer_1"></g><g data-name="Layer 3" id="Layer_3"><circle class="cls-2" cx="1025" cy="1008.9" r="613.7"/><path class="cls-3" d="M1068.5,1535.7c-339,0-613.7-274.8-613.7-613.7a613.5,613.5,0,0,1,44.4-229.8,611,611,0,0,0-87.9,316.7c0,339,274.8,613.7,613.7,613.7,257.7,0,478.3-158.8,569.2-383.9C1486.8,1416.7,1291.5,1535.7,1068.5,1535.7Z"/><path class="cls-4" d="M1025,395.2A611.1,611.1,0,0,0,659.9,515.6a706.9,706.9,0,0,1,453.2-18.9,31.6,31.6,0,0,0-3.3,5.1c-18.2,33.9,18.9,89.1,82.7,123.3s130.4,34.6,148.6.8a38.6,38.6,0,0,0,3.7-10.5c165.2,128.1,271.9,328.1,272.9,553.1a613.3,613.3,0,0,0,21-159.6C1638.7,670,1363.9,395.2,1025,395.2Z"/><ellipse class="cls-4" cx="1339.4" cy="682.7" rx="30.8" ry="52.8" transform="translate(412.7 1866.5) rotate(-79)"/><ellipse class="cls-4" cx="1235.1" cy="702.6" rx="17.2" ry="25" transform="translate(9.1 1421) rotate(-60)"/><path class="cls-5" d="M850.6,1073.9H659.4a30,30,0,1,1,0-60H850.6a30,30,0,0,1,0,60Z"/><path class="cls-5" d="M1390.6,1073.9H1199.4a30,30,0,1,1,0-60h191.2a30,30,0,0,1,0,60Z"/><path class="cls-5" d="M1017.5,1396.7l19.7.2c17.3.1,33.7.3,46.3-1,10.9-1.1,15.4-2.9,16.9-3.8s.1-1.1.1-2.1c0-13.7-12.5-24.2-19.9-29.2-16.2-11-39.2-17.2-63.1-17.2s-46.9,6.2-63,17.2c-7.5,5-19.9,15.5-19.9,29.2a11,11,0,0,0,.1,2.1c1.5.9,6,2.7,16.9,3.8,12.6,1.3,29,1.1,46.3,1Z"/><path class="cls-5" d="M1274.6,738.2H1144a30,30,0,0,1-21.2-51.2l54.8-54.9h-53.3a30,30,0,0,1,0-60h125.8a30.1,30.1,0,0,1,21.2,51.3l-54.9,54.8h58.2a30,30,0,0,1,0,60Z"/><path class="cls-5" d="M1060.2,899.4H999.1A30,30,0,0,1,974.6,852l27.4-38.4H989.8a30,30,0,0,1,0-60h70.4a30,30,0,0,1,24.4,47.4l-27.3,38.4h2.9a30,30,0,0,1,0,60Z"/><path class="cls-5" d="M1530.3,576.3H1347.2a30,30,0,0,1-21.2-51.2l97.5-97.5H1319.6a30,30,0,0,1,0-60h176.3a30,30,0,0,1,21.3,51.2l-97.5,97.5h110.6a30,30,0,0,1,0,60Z"/></g></svg>